<svg xmlns="http://www.w3.org/2000/svg" xmlns:xlink="http://www.w3.org/1999/xlink" version="1.0" x="0px" y="0px" viewBox="0 0 100 125" enable-background="new 0 0 100 100" xml:space="preserve"><path d="M34.2,92.1c-0.1,0-0.3,0-0.4-0.1c-0.9-0.2-1.4-1.1-1.1-2l15.9-55.3c0.2-0.7,0.8-1.2,1.6-1.2s1.4,0.5,1.6,1.2L67.6,90  c0.2,0.9-0.2,1.8-1.1,2c-0.9,0.2-1.8-0.2-2-1.1L50.1,41L35.8,90.9C35.6,91.6,34.9,92.1,34.2,92.1z"/><path d="M63.6,85.6H37.2c-0.9,0-1.6-0.7-1.6-1.6s0.7-1.6,1.6-1.6h26.4c0.9,0,1.6,0.7,1.6,1.6S64.5,85.6,63.6,85.6z"/><path d="M59.3,74.3H40.2c-0.9,0-1.6-0.7-1.6-1.6s0.7-1.6,1.6-1.6h19.1c0.9,0,1.6,0.7,1.6,1.6S60.2,74.3,59.3,74.3z"/><path d="M57.1,63H43.4c-0.9,0-1.6-0.7-1.6-1.6s0.7-1.6,1.6-1.6h13.7c0.9,0,1.6,0.7,1.6,1.6S58,63,57.1,63z"/><path d="M54.4,52.8h-8.1c-0.9,0-1.6-0.7-1.6-1.6s0.7-1.6,1.6-1.6h8.1c0.9,0,1.6,0.7,1.6,1.6S55.3,52.8,54.4,52.8z"/><path d="M64.5,85.9c-0.2,0-0.4,0-0.7-0.1L38.4,74.2c-0.5-0.2-0.9-0.8-0.9-1.4c0-0.6,0.3-1.2,0.8-1.5L55,60.9l-10.2-8.6  c-0.7-0.6-0.8-1.6-0.2-2.3c0.6-0.7,1.6-0.8,2.3-0.2l11.8,10c0.4,0.3,0.6,0.8,0.6,1.3c0,0.5-0.3,1-0.8,1.3l-16.1,10l22.7,10.3  c0.8,0.4,1.2,1.3,0.8,2.1C65.7,85.5,65.1,85.9,64.5,85.9z"/><path d="M61.5,50.1c-0.5,0-0.9-0.2-1.2-0.6c-0.6-0.7-0.5-1.7,0.2-2.3c3.8-3.2,6.1-7.8,6.1-12.8c0-9.1-7.4-16.6-16.6-16.6  c-9.1,0-16.6,7.4-16.6,16.6c0,4.7,2,9.2,5.6,12.4c0.7,0.6,0.7,1.6,0.1,2.3c-0.6,0.7-1.6,0.7-2.3,0.1c-4.2-3.8-6.6-9.1-6.6-14.8  c0-10.9,8.9-19.8,19.8-19.8c10.9,0,19.8,8.9,19.8,19.8c0,5.9-2.6,11.5-7.2,15.3C62.3,50,61.9,50.1,61.5,50.1z"/><path d="M56.4,42.9c-0.5,0-0.9-0.2-1.3-0.6c-0.6-0.7-0.5-1.7,0.2-2.3c2-1.6,3.1-4,3.1-6.5c0-4.6-3.8-8.4-8.5-8.4s-8.5,3.8-8.5,8.4  c0,2.4,1,4.7,2.8,6.3c0.7,0.6,0.7,1.6,0.1,2.3c-0.6,0.7-1.6,0.7-2.3,0.1c-2.5-2.2-3.9-5.4-3.9-8.7c0-6.4,5.3-11.6,11.7-11.6  s11.7,5.2,11.7,11.6c0,3.5-1.6,6.8-4.3,9C57.1,42.8,56.8,42.9,56.4,42.9z"/><path d="M65.8,55.5c-0.5,0-0.9-0.2-1.2-0.6c-0.6-0.7-0.5-1.7,0.2-2.3c5.4-4.5,8.5-11.1,8.5-18.1c0-12.9-10.5-23.4-23.3-23.4  c-12.9,0-23.3,10.5-23.3,23.4c0,6.7,2.8,13,7.8,17.5c0.7,0.6,0.7,1.6,0.1,2.3C34,55,33,55,32.3,54.4c-5.7-5-8.9-12.3-8.9-19.9  C23.4,19.9,35.4,7.9,50,7.9c14.6,0,26.6,11.9,26.6,26.6c0,8-3.5,15.5-9.7,20.6C66.6,55.4,66.2,55.5,65.8,55.5z"/><text x="0" y="115" fill="#000000" font-size="5px" font-weight="bold" font-family="'Helvetica Neue', Helvetica, Arial-Unicode, Arial, Sans-serif">Created by Daniele Catalanotto</text><text x="0" y="120" fill="#000000" font-size="5px" font-weight="bold" font-family="'Helvetica Neue', Helvetica, Arial-Unicode, Arial, Sans-serif">from the Noun Project</text></svg>